<svg width="19" height="19" viewBox="0 0 19 19" fill="none" xmlns="http://www.w3.org/2000/svg">
<path d="M13.5196 6.43797C14.2308 6.43797 14.8072 5.86149 14.8072 5.15038C14.8072 4.43926 14.2308 3.86279 13.5196 3.86279C12.8085 3.86279 12.2321 4.43926 12.2321 5.15038C12.2321 5.86149 12.8085 6.43797 13.5196 6.43797Z" fill="#D9FFED"/>
<path d="M13.5197 9.01312H5.15036C3.02004 9.01312 1.2876 7.28067 1.2876 5.15036C1.2876 3.02005 3.02004 1.2876 5.15036 1.2876H13.5197C15.65 1.2876 17.3824 3.02005 17.3824 5.15036C17.3824 7.28067 15.65 9.01312 13.5197 9.01312ZM5.15036 2.57518C3.73015 2.57518 2.57518 3.73015 2.57518 5.15036C2.57518 6.57056 3.73015 7.72553 5.15036 7.72553H13.5197C14.9399 7.72553 16.0948 6.57056 16.0948 5.15036C16.0948 3.73015 14.9399 2.57518 13.5197 2.57518H5.15036Z" fill="#D9FFED"/>
<path d="M5.15032 14.8074C5.86143 14.8074 6.4379 14.2309 6.4379 13.5198C6.4379 12.8086 5.86143 12.2322 5.15032 12.2322C4.4392 12.2322 3.86273 12.8086 3.86273 13.5198C3.86273 14.2309 4.4392 14.8074 5.15032 14.8074Z" fill="#D9FFED"/>
<path d="M13.5197 17.3825H5.15036C3.02004 17.3825 1.2876 15.6501 1.2876 13.5197C1.2876 11.3894 3.02004 9.65698 5.15036 9.65698H13.5197C15.65 9.65698 17.3824 11.3894 17.3824 13.5197C17.3824 15.6501 15.65 17.3825 13.5197 17.3825ZM5.15036 10.9446C3.73015 10.9446 2.57518 12.0995 2.57518 13.5197C2.57518 14.9399 3.73015 16.0949 5.15036 16.0949H13.5197C14.9399 16.0949 16.0948 14.9399 16.0948 13.5197C16.0948 12.0995 14.9399 10.9446 13.5197 10.9446H5.15036Z" fill="#D9FFED"/>
</svg>
