<svg width="19" height="19" viewBox="0 0 19 19" fill="none" xmlns="http://www.w3.org/2000/svg">
<path d="M4.66751 1.55591C3.84225 1.55591 3.05078 1.88374 2.46723 2.46729C1.88368 3.05084 1.55585 3.84231 1.55585 4.66757V7.00132H3.11168V4.66757C3.11168 4.25494 3.2756 3.85921 3.56737 3.56743C3.85915 3.27566 4.25488 3.11174 4.66751 3.11174H14.0025C14.4151 3.11174 14.8109 3.27566 15.1027 3.56743C15.3944 3.85921 15.5583 4.25494 15.5583 4.66757V14.0026C15.5583 14.4152 15.3944 14.8109 15.1027 15.1027C14.8109 15.3945 14.4151 15.5584 14.0025 15.5584H4.66751C4.25488 15.5584 3.85915 15.3945 3.56737 15.1027C3.2756 14.8109 3.11168 14.4152 3.11168 14.0026V11.6688H1.55585V14.0026C1.55585 14.8278 1.88368 15.6193 2.46723 16.2029C3.05078 16.7864 3.84225 17.1142 4.66751 17.1142H14.0025C14.8278 17.1142 15.6192 16.7864 16.2028 16.2029C16.7863 15.6193 17.1142 14.8278 17.1142 14.0026V4.66757C17.1142 3.84231 16.7863 3.05084 16.2028 2.46729C15.6192 1.88374 14.8278 1.55591 14.0025 1.55591H4.66751Z" fill="#D9FFED"/>
<path d="M2.33376 8.55709C2.12745 8.55709 1.92958 8.63904 1.78369 8.78493C1.63781 8.93082 1.55585 9.12869 1.55585 9.335C1.55585 9.54132 1.63781 9.73918 1.78369 9.88507C1.92958 10.031 2.12745 10.1129 2.33376 10.1129H9.78776L7.81574 12.0857C7.67404 12.2324 7.59563 12.4289 7.5974 12.6329C7.59917 12.8369 7.68099 13.032 7.82522 13.1762C7.96945 13.3204 8.16456 13.4023 8.36853 13.404C8.5725 13.4058 8.769 13.3274 8.91572 13.1857L12.1799 9.92155C12.2639 9.84867 12.3313 9.75858 12.3775 9.65739C12.4237 9.55619 12.4476 9.44624 12.4476 9.335C12.4476 9.22376 12.4237 9.11382 12.3775 9.01262C12.3313 8.91142 12.2639 8.82133 12.1799 8.74845L8.91494 5.48432C8.84318 5.41002 8.75734 5.35075 8.66243 5.30998C8.56752 5.26921 8.46544 5.24775 8.36215 5.24686C8.25886 5.24596 8.15643 5.26564 8.06082 5.30475C7.96522 5.34387 7.87836 5.40163 7.80532 5.47467C7.73228 5.54771 7.67452 5.63457 7.6354 5.73017C7.59629 5.82578 7.57661 5.92821 7.57751 6.0315C7.5784 6.13479 7.59986 6.23687 7.64063 6.33178C7.6814 6.42669 7.74067 6.51253 7.81496 6.58429L9.78776 8.55709H2.33376Z" fill="#D9FFED"/>
</svg>
