<svg width="19" height="14" viewBox="0 0 19 14" fill="none" xmlns="http://www.w3.org/2000/svg">
<path d="M16.9167 14H1.75C0.78349 14 0 13.2165 0 12.25V1.75C0 0.78349 0.78349 0 1.75 0H16.9167C17.8832 0 18.6667 0.78349 18.6667 1.75V12.25C18.6667 13.2165 17.8832 14 16.9167 14ZM4.08333 2.04167C2.95575 2.04167 2.04167 2.95575 2.04167 4.08333C2.04167 5.21092 2.95575 6.125 4.08333 6.125C5.21092 6.125 6.125 5.21092 6.125 4.08333C6.125 2.95575 5.21092 2.04167 4.08333 2.04167ZM2.33333 11.6667H16.3333V7.58333L13.1427 4.39268C12.9718 4.22184 12.6948 4.22184 12.5239 4.39268L7.58333 9.33333L5.55935 7.30935C5.38851 7.1385 5.11149 7.1385 4.94061 7.30935L2.33333 9.91667V11.6667Z" fill="#D9FFED"/>
</svg>
