<svg width="19" height="13" viewBox="0 0 19 13" fill="none" xmlns="http://www.w3.org/2000/svg">
<path d="M17.6846 5.18616H0.985361C0.441161 5.18616 0 5.62732 0 6.17152V6.27524C0 6.81944 0.441161 7.2606 0.985361 7.2606H17.6846C18.2288 7.2606 18.67 6.81944 18.67 6.27524V6.17152C18.67 5.62732 18.2288 5.18616 17.6846 5.18616Z" fill="#D9FFED"/>
<path d="M17.6846 10.3722H0.985361C0.441161 10.3722 0 10.8134 0 11.3576V11.4613C0 12.0055 0.441161 12.4466 0.985361 12.4466H17.6846C18.2288 12.4466 18.67 12.0055 18.67 11.4613V11.3576C18.67 10.8134 18.2288 10.3722 17.6846 10.3722Z" fill="#D9FFED"/>
<path d="M17.6846 0H0.985361C0.441161 0 0 0.441161 0 0.985361V1.08908C0 1.63328 0.441161 2.07444 0.985361 2.07444H17.6846C18.2288 2.07444 18.67 1.63328 18.67 1.08908V0.985361C18.67 0.441161 18.2288 0 17.6846 0Z" fill="#D9FFED"/>
</svg>
